<?xml version="1.0" standalone="no"?>
<!DOCTYPE svg PUBLIC "-//W3C//DTD SVG 20010904//EN"
 "http://www.w3.org/TR/2001/REC-SVG-20010904/DTD/svg10.dtd">
<svg version="1.0" xmlns="http://www.w3.org/2000/svg"
 width="751.000000pt" height="751.000000pt" viewBox="0 0 751.000000 751.000000"
 preserveAspectRatio="xMidYMid meet">
<metadata>
Created by potrace 1.14, written by Peter Selinger 2001-2017
</metadata>
<g transform="translate(0.000000,751.000000) scale(0.100000,-0.100000)"
fill="#000000" stroke="none">
<path d="M1797 6964 c-1 -1 -45 -4 -97 -7 -52 -3 -106 -8 -120 -11 -14 -3 -38
-8 -55 -11 -548 -105 -1061 -508 -1337 -1050 -40 -78 -113 -259 -123 -305 -2
-8 -16 -67 -31 -130 -25 -105 -27 -132 -28 -325 0 -190 5 -295 19 -365 2 -13
7 -42 11 -65 26 -183 146 -488 284 -720 83 -141 238 -373 293 -440 4 -5 25
-33 45 -60 36 -49 200 -254 258 -324 56 -67 149 -176 154 -181 3 -3 59 -66
125 -140 66 -74 129 -144 140 -156 11 -11 70 -74 130 -139 311 -333 781 -803
1249 -1250 104 -99 252 -242 329 -317 316 -311 529 -432 741 -422 190 9 399
176 1106 884 381 381 626 636 845 878 113 125 147 190 147 282 0 103 -28 174
-95 243 -69 70 -125 92 -232 92 -131 0 -173 -23 -306 -168 -467 -510 -1158
-1205 -1434 -1442 -39 -33 -73 -63 -76 -68 -9 -13 -103 66 -249 209 -74 73
-163 159 -196 191 -469 443 -1252 1226 -1411 1409 -20 24 -177 196 -208 229
-79 84 -366 427 -455 544 -14 18 -30 38 -35 44 -24 27 -137 189 -207 297 -169
259 -253 444 -293 653 -22 110 -27 380 -9 472 70 363 369 738 724 907 85 40
96 44 200 72 228 62 549 9 793 -131 34 -20 71 -41 82 -47 30 -17 167 -111 192
-132 12 -11 51 -43 85 -72 99 -83 256 -246 357 -372 51 -63 98 -123 106 -132
31 -38 205 -308 240 -373 113 -208 278 -456 417 -625 16 -19 32 -39 36 -45 55
-72 263 -291 358 -375 98 -88 120 -106 179 -150 33 -25 62 -48 65 -51 15 -19
240 -158 330 -203 150 -76 331 -143 434 -162 16 -2 32 -7 36 -9 4 -2 35 -9 71
-15 317 -52 648 -21 939 87 365 136 674 382 892 707 83 124 208 404 232 519
10 48 15 69 20 85 3 9 8 40 12 67 3 28 8 52 9 55 18 31 22 344 6 470 -18 134
-21 149 -47 250 -134 501 -476 919 -944 1155 -101 51 -227 97 -345 128 -111
28 -158 37 -280 52 -48 6 -338 7 -380 1 -16 -2 -57 -7 -90 -11 -212 -24 -448
-97 -625 -194 -30 -17 -72 -40 -93 -51 -164 -90 -494 -387 -545 -492 -92 -188
-12 -395 180 -466 121 -45 258 -12 349 84 270 283 480 408 774 458 83 15 401
15 460 1 17 -4 35 -8 40 -9 424 -101 747 -412 859 -828 49 -183 50 -385 2
-583 -49 -206 -213 -454 -397 -600 -152 -122 -386 -220 -574 -241 -150 -17
-298 -8 -425 25 -313 83 -642 312 -934 652 -185 215 -296 376 -441 634 -34 61
-81 139 -104 175 -23 36 -46 72 -51 80 -40 64 -186 261 -257 348 -445 547
-956 890 -1473 991 -108 21 -103 20 -318 35 -18 1 -33 2 -35 0z"/>
</g>
</svg>
