<svg width="256" height="256" viewBox="0 0 256 256" fill="none" xmlns="http://www.w3.org/2000/svg">
<g clip-path="url(#clip0_29_77)">
<g filter="url(#filter0_i_29_77)">
<rect width="256" height="256" fill="#38C793"/>
<g filter="url(#filter1_b_29_77)">
<mask id="path-1-inside-1_29_77" fill="white">
<path fill-rule="evenodd" clip-rule="evenodd" shape-rendering="geometricPrecision" d="M205.191 107.793C205.766 90.628 191.753 76.2481 174.51 76.2975C164.151 76.3268 158.439 79.3327 153.901 84.3492C150.43 88.1869 144.489 88.498 140.632 85.0441C136.775 81.5901 136.462 75.679 139.934 71.8413C148.406 62.4752 159.39 57.6429 174.456 57.6002M205.191 107.793C204.644 124.121 191.155 137.201 174.606 137.201C174.638 137.201 174.634 137.201 174.595 137.199C173.841 137.159 160.007 136.437 151.448 123.384C151.406 123.321 151.364 123.258 151.321 123.196C145.689 115.045 141.804 109.011 138.379 103.668C138.224 103.426 138.07 103.186 137.916 102.946C134.68 97.8973 131.735 93.3034 128.08 88.1427L128.079 88.1416C119.242 75.6678 111.631 67.8214 103.851 63.2592C95.6707 58.4618 88.2309 57.8447 81.3929 57.8447C54.1081 57.8447 32 79.8514 32 106.99C32 131.861 47.4817 152.9 64.5151 169.804C73.1841 178.407 82.6837 186.351 91.6253 193.557C94.4636 195.844 97.2175 198.035 99.8721 200.147C105.729 204.807 111.102 209.082 115.834 213.157C122.964 219.34 133.808 219.084 140.624 212.301L168.017 185.046C171.686 181.395 171.686 175.476 168.017 171.825C164.347 168.174 158.398 168.174 154.729 171.825L127.738 198.681C122.809 194.456 117.117 189.926 111.262 185.268C108.673 183.208 106.052 181.122 103.452 179.027C94.6443 171.929 85.7513 164.471 77.7854 156.566C61.5489 140.453 50.7916 124.049 50.7916 106.99C50.7916 90.1755 64.4886 76.5421 81.3929 76.5421C86.8056 76.5421 90.3227 77.0288 94.3096 79.367C98.6977 81.9403 104.464 87.2609 112.72 98.9131C116.119 103.713 118.853 107.979 122.139 113.103C122.27 113.309 122.403 113.516 122.537 113.724C125.985 119.103 129.991 125.326 135.774 133.699C150.201 155.595 173.615 155.898 174.606 155.898C201.322 155.898 223.088 134.79 223.972 108.416C224.901 80.6793 202.357 57.5204 174.456 57.6002"/>
</mask>
<path fill-rule="evenodd" clip-rule="evenodd" shape-rendering="geometricPrecision" d="M205.191 107.793C205.766 90.628 191.753 76.2481 174.51 76.2975C164.151 76.3268 158.439 79.3327 153.901 84.3492C150.43 88.1869 144.489 88.498 140.632 85.0441C136.775 81.5901 136.462 75.679 139.934 71.8413C148.406 62.4752 159.39 57.6429 174.456 57.6002M205.191 107.793C204.644 124.121 191.155 137.201 174.606 137.201C174.638 137.201 174.634 137.201 174.595 137.199C173.841 137.159 160.007 136.437 151.448 123.384C151.406 123.321 151.364 123.258 151.321 123.196C145.689 115.045 141.804 109.011 138.379 103.668C138.224 103.426 138.07 103.186 137.916 102.946C134.68 97.8973 131.735 93.3034 128.08 88.1427L128.079 88.1416C119.242 75.6678 111.631 67.8214 103.851 63.2592C95.6707 58.4618 88.2309 57.8447 81.3929 57.8447C54.1081 57.8447 32 79.8514 32 106.99C32 131.861 47.4817 152.9 64.5151 169.804C73.1841 178.407 82.6837 186.351 91.6253 193.557C94.4636 195.844 97.2175 198.035 99.8721 200.147C105.729 204.807 111.102 209.082 115.834 213.157C122.964 219.34 133.808 219.084 140.624 212.301L168.017 185.046C171.686 181.395 171.686 175.476 168.017 171.825C164.347 168.174 158.398 168.174 154.729 171.825L127.738 198.681C122.809 194.456 117.117 189.926 111.262 185.268C108.673 183.208 106.052 181.122 103.452 179.027C94.6443 171.929 85.7513 164.471 77.7854 156.566C61.5489 140.453 50.7916 124.049 50.7916 106.99C50.7916 90.1755 64.4886 76.5421 81.3929 76.5421C86.8056 76.5421 90.3227 77.0288 94.3096 79.367C98.6977 81.9403 104.464 87.2609 112.72 98.9131C116.119 103.713 118.853 107.979 122.139 113.103C122.27 113.309 122.403 113.516 122.537 113.724C125.985 119.103 129.991 125.326 135.774 133.699C150.201 155.595 173.615 155.898 174.606 155.898C201.322 155.898 223.088 134.79 223.972 108.416C224.901 80.6793 202.357 57.5204 174.456 57.6002" fill="url(#paint0_linear_29_77)" fill-opacity="0.8"/>
<path fill-rule="evenodd" clip-rule="evenodd" shape-rendering="geometricPrecision" d="M205.191 107.793C205.766 90.628 191.753 76.2481 174.51 76.2975C164.151 76.3268 158.439 79.3327 153.901 84.3492C150.43 88.1869 144.489 88.498 140.632 85.0441C136.775 81.5901 136.462 75.679 139.934 71.8413C148.406 62.4752 159.39 57.6429 174.456 57.6002M205.191 107.793C204.644 124.121 191.155 137.201 174.606 137.201C174.638 137.201 174.634 137.201 174.595 137.199C173.841 137.159 160.007 136.437 151.448 123.384C151.406 123.321 151.364 123.258 151.321 123.196C145.689 115.045 141.804 109.011 138.379 103.668C138.224 103.426 138.07 103.186 137.916 102.946C134.68 97.8973 131.735 93.3034 128.08 88.1427L128.079 88.1416C119.242 75.6678 111.631 67.8214 103.851 63.2592C95.6707 58.4618 88.2309 57.8447 81.3929 57.8447C54.1081 57.8447 32 79.8514 32 106.99C32 131.861 47.4817 152.9 64.5151 169.804C73.1841 178.407 82.6837 186.351 91.6253 193.557C94.4636 195.844 97.2175 198.035 99.8721 200.147C105.729 204.807 111.102 209.082 115.834 213.157C122.964 219.34 133.808 219.084 140.624 212.301L168.017 185.046C171.686 181.395 171.686 175.476 168.017 171.825C164.347 168.174 158.398 168.174 154.729 171.825L127.738 198.681C122.809 194.456 117.117 189.926 111.262 185.268C108.673 183.208 106.052 181.122 103.452 179.027C94.6443 171.929 85.7513 164.471 77.7854 156.566C61.5489 140.453 50.7916 124.049 50.7916 106.99C50.7916 90.1755 64.4886 76.5421 81.3929 76.5421C86.8056 76.5421 90.3227 77.0288 94.3096 79.367C98.6977 81.9403 104.464 87.2609 112.72 98.9131C116.119 103.713 118.853 107.979 122.139 113.103C122.27 113.309 122.403 113.516 122.537 113.724C125.985 119.103 129.991 125.326 135.774 133.699C150.201 155.595 173.615 155.898 174.606 155.898C201.322 155.898 223.088 134.79 223.972 108.416C224.901 80.6793 202.357 57.5204 174.456 57.6002" stroke="url(#paint1_linear_29_77)" stroke-width="112.969" mask="url(#path-1-inside-1_29_77)"/>
</g>
</g>
</g>
<defs>
<filter id="filter0_i_29_77" x="0" y="-25.6" width="256" height="281.6" filterUnits="userSpaceOnUse" color-interpolation-filters="sRGB">
<feFlood flood-opacity="0" result="BackgroundImageFix"/>
<feBlend mode="normal" in="SourceGraphic" in2="BackgroundImageFix" result="shape"/>
<feColorMatrix in="SourceAlpha" type="matrix" values="0 0 0 0 0 0 0 0 0 0 0 0 0 0 0 0 0 0 127 0" result="hardAlpha"/>
<feOffset dy="-25.6"/>
<feGaussianBlur stdDeviation="25.6"/>
<feComposite in2="hardAlpha" operator="arithmetic" k2="-1" k3="1"/>
<feColorMatrix type="matrix" values="0 0 0 0 1 0 0 0 0 1 0 0 0 0 1 0 0 0 0.64 0"/>
<feBlend mode="normal" in2="shape" result="effect1_innerShadow_29_77"/>
</filter>
<filter id="filter1_b_29_77" x="-198.4" y="-172.8" width="652.8" height="620.8" filterUnits="userSpaceOnUse" color-interpolation-filters="sRGB">
<feFlood flood-opacity="0" result="BackgroundImageFix"/>
<feGaussianBlur in="BackgroundImageFix" stdDeviation="115.2"/>
<feComposite in2="SourceAlpha" operator="in" result="effect1_backgroundBlur_29_77"/>
<feBlend mode="normal" in="SourceGraphic" in2="effect1_backgroundBlur_29_77" result="shape"/>
</filter>
<linearGradient id="paint0_linear_29_77" x1="128" y1="57.6" x2="128" y2="300.217" gradientUnits="userSpaceOnUse">
<stop offset="0.313079" stop-color="white"/>
<stop offset="1" stop-color="white" stop-opacity="0"/>
</linearGradient>
<linearGradient id="paint1_linear_29_77" x1="466.898" y1="-330.739" x2="-14.026" y2="137.437" gradientUnits="userSpaceOnUse">
<stop stop-color="white"/>
<stop offset="1" stop-color="white" stop-opacity="0"/>
</linearGradient>
<clipPath id="clip0_29_77">
<rect width="256" height="256" fill="white"/>
</clipPath>
</defs>
</svg>
